<?xml version="1.0" encoding="UTF-8"?>
<svg id="Layer_1" xmlns="http://www.w3.org/2000/svg" version="1.1" viewBox="0 0 234.3 288.7">
  <!-- Generator: Adobe Illustrator 29.2.1, SVG Export Plug-In . SVG Version: 2.1.0 Build 116)  -->
  <path d="M176.5,122.7h-23.7c31-19.7,40.2-60.8,20.4-91.8C153.6-.2,112.4-9.3,81.4,10.4c-31,19.7-40.2,60.8-20.4,91.8,5.2,8.2,12.2,15.2,20.4,20.4h-23.7c-31.9,0-57.7,25.9-57.8,57.8v108.2c.1,2.9,2.6,5.1,5.5,5,2.7-.1,4.9-2.3,5-5v-108.2c0-26.1,21.2-47.2,47.3-47.3h118.8c26.1,0,47.2,21.2,47.3,47.3v108.2c.1,2.9,2.6,5.1,5.5,5,2.7-.1,4.9-2.3,5-5v-108.2c0-31.9-25.9-57.7-57.8-57.8ZM61.1,66.6c0-30.9,25.1-56,56-56s56,25.1,56,56-25.1,56-56,56c-30.9,0-55.9-25.1-56-56Z"/>
  <path d="M173.9,175c-2.9,0-5.2,2.3-5.2,5.2h0v108.4c0,2.9,2.3,5.2,5.2,5.2s5.2-2.3,5.2-5.2v-108.5c0-2.9-2.4-5.2-5.2-5.2Z"/>
  <path d="M60.3,175c-2.9,0-5.2,2.3-5.2,5.2,0,0,0,0,0,0v108.4c0,2.9,2.4,5.2,5.2,5.2,2.9,0,5.2-2.3,5.2-5.2v-108.5c0-2.9-2.4-5.2-5.2-5.2Z"/>
</svg>