<svg width="204" height="30" viewBox="0 0 204 30" xmlns="http://www.w3.org/2000/svg">
    <g fill="#000" fill-rule="nonzero">
        <path d="M114.477 20.253h2.528v-3.42h-2.902v-2.518h3.844v-3.416h-3.844V8.206h2.572v-3.54h-16.56c.31-.398.578-.791.831-1.181l-3.9-1.708c-1.019 1.452-2.322 2.954-3.86 4.392a32.467 32.467 0 0 1-2.388 2.03l3.438 2.211c.39-.285.777-.594 1.173-.913v1.402h-3.818v3.416h3.818v2.518h-2.663v3.42h2.597c-.945 1.735-2.517 3.762-3.672 4.744l3.34 2.384c1.636-1.464 3.164-3.494 4.321-5.88l-2.581-1.248h16.676l-2.676 1.473c1.316 1.637 2.834 3.706 3.72 5.425l3.681-1.744c-.792-1.547-2.288-3.728-3.675-5.154zm-4.423-3.42h-1.024v-2.518h1.024v2.518zm-4.75-2.518v2.518h-1.072v-2.518h1.072zm-1.072-3.416V8.206h1.072v2.693h-1.072zm5.822 0h-1.024V8.206h1.024v2.693zM99.45 8.206h1.047v2.693H99.45V8.206zm0 6.109h1.047v2.518H99.45v-2.518z"/>
        <path d="M99.945 21.408c.58 1.214 1.484 4.547 1.49 5.55l3.98-.824c-.455-2.53-.873-3.908-1.84-5.602l-3.63.876zM105.278 21.63c.72 1.147 2.005 4.152 2.147 5.354l4.056-.958c-.552-2.291-1.29-3.8-2.299-5.417l-3.904 1.022zM146.93 5.104h-12.339v.595l-2.596-2.252c-2.074 1.169-5.29 2.128-8.962 2.562-.048 0-.082.007-.13.012v20.045h4.354V24.75h6.666v-4.009h-6.666v-4.658h6.666v-3.792h-6.666v-3.28c2.89-.535 5.423-1.321 7.334-2.267V27.38h4.405V8.94h3.525v11.801h-2.872l1.474 4.242h2.166c2.01 0 3.64-1.447 3.64-3.227l.001-16.652zM169.612 21.399c.346-.302.71-.616 1.066-.938 1.186-1.122 2.213-2.259 3.02-3.318l-1.2-1.092V5.253h-7.312V2.069h-4.738v3.185h-7.468v17.562h-.016c-.913.188-1.81.363-2.698.517l.907 4.188c.472-.096.94-.203 1.408-.307 4.03-.901 7.696-1.984 10.585-3.08l-.013-2.61c2.682 2.662 6.456 4.967 10.664 6.278l2.312-3.62c-2.521-.783-4.719-1.714-6.517-2.783zm-1.833-8.101h-10.232v-.91h10.232v.91zm.692 3.556c-.33.397-.685.807-1.075 1.214-.3.322-.612.638-.922.935a10.085 10.085 0 0 1-1.646-2.149h3.643zm-.692-8.199v.928h-10.232v-.928h10.232zm-10.232 13.107v-4.908h2.238c.546 1.214 1.347 2.426 2.363 3.593-1.415.463-2.95.9-4.601 1.315z"/>
        <g>
            <path d="M199.106 3.914H183.768v10.235h15.335l.003-10.235zm-11.108 3.374h6.875v3.349h-6.875V7.288zM178.904 15.363v12.03h4.227v-.86h3.355v.854h4.23V15.363h-11.812zm4.226 7.768v-4.217h3.355v4.217h-3.355zM204 15.363h-11.99v12.03h4.321v-.86h3.35v.854H204V15.363zm-7.669 7.768v-4.217h3.35v4.217h-3.35z"/>
        </g>
        <g>
            <path d="M77.703 29.3h-7.357V.01h7.364zM19.55 8.304l-4.215 20.999-5.15-.003L5.95 8.304V29.3L0 29.237V.01L9.066 0l3.681 18.318L16.435 0h9.384v29.303h-6.27zM48.577 21.979c0 5.056-4.392 7.993-9.782 7.993-5.397 0-9.79-2.937-9.79-7.996L28.981 0h7.362l.019 21.85c0 1.254 1.095 2.272 2.432 2.272 1.335 0 2.436-1.017 2.436-2.271L41.24 0h7.366l-.029 21.979zM67.16 22.887c0 4.423-3.834 7.113-8.54 7.113-4.71 0-8.533-2.69-8.533-7.113-.021-1.102-.019-2.726-.019-4.277l6.552-.006v4.288c0 .825.71 1.495 1.595 1.495.878 0 1.601-.67 1.601-1.495L59.82 0h7.362l-.021 22.887z"/>
        </g>
    </g>
</svg>
