<?xml version="1.0" encoding="utf-8"?>
<!-- Generator: Adobe Illustrator 24.0.0, SVG Export Plug-In . SVG Version: 6.00 Build 0)  -->
<svg version="1.1" id="Layer_1" xmlns="http://www.w3.org/2000/svg" xmlns:xlink="http://www.w3.org/1999/xlink" x="0px" y="0px"
	 viewBox="0 0 108.4 102" style="enable-background:new 0 0 108.4 102;" xml:space="preserve">
<path d="M54.1,100.8c-0.5,0-0.9-0.2-1.3-0.5c-1.6-1.4-39.9-34.9-49.6-60.9c-1.5-3.5-2.3-7.1-2.3-10.9c0-15.2,12.4-27.6,27.6-27.6
	c11.6,0,21.6,7.2,25.6,17.4c4.1-10.1,14-17.2,25.5-17.2c15.2,0,27.6,12.4,27.6,27.6c0,0.5,0,1.1-0.1,1.6
	c-0.1,24.7-49.7,68.2-51.8,70.1C55,100.7,54.6,100.8,54.1,100.8z M28.5,4.9c-13,0-23.6,10.6-23.6,23.6c0,3.3,0.7,6.4,1.9,9.4
	c0,0,0,0.1,0,0.1c8.4,22.4,40.3,52,47.2,58.2C62,89,103.2,51,103.2,30.2c0,0,0-0.1,0-0.1c0-0.5,0-1,0-1.4c0-13-10.6-23.6-23.6-23.6
	S56.1,15.6,56.1,28.6c0,0.1,0,0.2,0,0.3l0,0.3c0,0.5-0.2,1.1-0.6,1.4c-0.8,0.8-2.1,0.8-2.9,0c-0.4-0.4-0.6-0.9-0.6-1.5l0-0.2
	c0-0.2,0-0.4,0-0.6C52.1,15.4,41.5,4.9,28.5,4.9z"/>
</svg>
